# xmcd
#
# Track frame offsets: 
#        150
#        20390
#        37460
#        55639
#        82836
#        102382
#        117856
#        137663
#        156729
#        174986
#        193937
#
# Disc length: 2835 seconds
#
# Revision: 0
# Processed by: cddbd v1.5.2PL0 Copyright (c) Steve Scherf et al.
# Submitted via: ExactAudioCopy v1.0b3
#
DISCID=940b110b
DTITLE=Multi - Kammgarn Bluesfestival 
DYEAR=2013
DGENRE=Blues
TTITLE0=Michael Hill - Step Inside Our House
TTITLE1=Royal Southern Brotherhood - Moonlight Over The Mississippi
TTITLE2=Jessy Martens - Little Mama Don't Play
TTITLE3=Danny Newmann - Burying Ground
TTITLE4=Morblus - Jungle Night
TTITLE5=The Brew UK - Reached The Sky
TTITLE6=Dana Fuchs - Love To Beg
TTITLE7=Eric Sardinas - County Line
TTITLE8=Stacie Collins - Hey Mister
TTITLE9=Morblus - Pappy's Words
TTITLE10=Michael Hill - Blessings
EXTD=
EXTT0=
EXTT1=
EXTT2=
EXTT3=
EXTT4=
EXTT5=
EXTT6=
EXTT7=
EXTT8=
EXTT9=
EXTT10=
PLAYORDER=
